HIERARCHY
ROOT ui
{
	 OFFSET 0 0 0
	 CHANNELS 3 XPosition YPosition Z Position
	 EndSite
	 {
	 OFFSET 0 -1 0
	 }
}
ROOT li
{
	 OFFSET 0 0 0
	 CHANNELS 3 XPosition YPosition Z Position
	 EndSite
	 {
	 OFFSET 0 -1 0
	 }
}
ROOT ul
{
	 OFFSET 0 0 0
	 CHANNELS 3 XPosition YPosition Z Position
	 EndSite
	 {
	 OFFSET 0 -1 0
	 }
}
ROOT ll
{
	 OFFSET 0 0 0
	 CHANNELS 3 XPosition YPosition Z Position
	 EndSite
	 {
	 OFFSET 0 -1 0
	 }
}
ROOT tt
{
	 OFFSET 0 0 0
	 CHANNELS 3 XPosition YPosition Z Position
	 EndSite
	 {
	 OFFSET 0 -1 0
	 }
}
ROOT tb
{
	 OFFSET 0 0 0
	 CHANNELS 3 XPosition YPosition Z Position
	 EndSite
	 {
	 OFFSET 0 -1 0
	 }
}
ROOT td
{
	 OFFSET 0 0 0
	 CHANNELS 3 XPosition YPosition Z Position
	 EndSite
	 {
	 OFFSET 0 -1 0
	 }
}
ROOT v
{
	 OFFSET 0 0 0
	 CHANNELS 3 XPosition YPosition Z Position
	 EndSite
	 {
	 OFFSET 0 -1 0
	 }
}
ROOT bn
{
	 OFFSET 0 0 0
	 CHANNELS 3 XPosition YPosition Z Position
	 EndSite
	 {
	 OFFSET 0 -1 0
	 }
}
MOTION
Frames: 29
Frame Time: 0.002
0.01621401023864746	-0.0019387160539627076	0		0.5377687377929687	-2.4155029296875	0		-0.9724341430664063	0.08349421691894532	0		-0.7710546264648438	-2.507456298828125	0		1.5637745361328126	-0.7783267822265625	0		3.21326806640625	-0.19730012512207032	0		4.70125732421875	-0.09750253295898438	0		5.61452587890625	0.19345114135742186	0		-0.07716033172607421	5.99363720703125	0		
0.012552332878112794	-0.0021582279205322264	0		0.48298345947265625	-2.407874755859375	0		-0.9760867919921875	0.08337943267822266	0		-0.777016845703125	-2.509556640625	0		1.5999888916015625	-0.7814189453125	0		3.230440673828125	-0.20622929382324218	0		4.69347998046875	-0.10414649963378907	0		5.610884765625	0.19263858032226563	0		-0.08116899871826172	5.9944453125	0		
-0.005705618858337402	0.011875967025756835	0		0.5051716003417969	-2.41062060546875	0		-1.0486478271484374	0.08048724365234375	0		-0.7767293090820313	-2.505773681640625	0		1.5423311767578125	-0.7848592529296875	0		3.21130322265625	-0.18452903747558594	0		4.697189453125	-0.0920143814086914	0		5.6166796875	0.20763461303710937	0		0.06353932571411133	6.02459716796875	0		
0.01282976245880127	0.00424697208404541	0		0.5092815856933594	-2.427052978515625	0		-0.9729346313476562	0.08194839477539062	0		-0.7783057861328125	-2.50396044921875	0		1.596024658203125	-0.7792886352539062	0		3.211640380859375	-0.2021868896484375	0		4.6938427734375	-0.09276643371582032	0		5.61336572265625	0.2067815399169922	0		-0.07052715301513672	6.003708984375	0		
0.07952940368652343	-0.005254557132720947	0		0.5022330017089843	-2.40727734375	0		-0.9760706787109374	0.08181707763671875	0		-0.7817244873046875	-2.504113037109375	0		1.5528370361328125	-0.7769789428710937	0		3.222687744140625	-0.19103033447265624	0		4.6906875	-0.09351720428466796	0		5.61024365234375	0.2059302520751953	0		0.04418172073364258	6.01336474609375	0		
-0.015123783111572265	0.011169452667236329	0		0.4969971923828125	-2.40953076171875	0		-0.9830740356445312	0.07775984191894532	0		-0.7499949951171875	-2.507899658203125	0		1.5867161865234376	-0.7830533447265625	0		3.21254638671875	-0.20148487854003908	0		4.67877490234375	-0.09209571838378906	0		5.6031806640625	0.19716342163085937	0		-0.124572998046875	5.98914306640625	0		
0.073857177734375	-0.005737943172454834	0		0.48992071533203124	-2.414740234375	0		-0.9976119995117188	0.08785049438476562	0		-0.7940391845703125	-2.5103017578125	0		1.5439456787109376	-0.7807217407226562	0		3.178817626953125	-0.20048959350585938	0		4.6757236328125	-0.10981885528564453	0		5.600470703125	0.19633963012695313	0		-0.09260275268554688	5.9923037109375	0		
-0.005637279987335205	-0.003554595947265625	0		0.4928145751953125	-2.433121337890625	0		-0.9883139038085937	0.07751130676269531	0		-0.7927506713867187	-2.506517333984375	0		1.547210205078125	-0.7882135620117188	0		3.1941767578125	-0.2063708953857422	0		4.66631689453125	-0.10339741516113281	0		5.606927734375	0.19337321472167968	0		-0.07734703826904298	6.00077587890625	0		
-0.005746442794799805	0.00819377040863037	0		0.4657997436523437	-2.40292724609375	0		-1.051552001953125	0.08252284240722656	0		-0.8641531982421875	-2.49637841796875	0		1.5309515380859375	-0.7803240966796875	0		3.215191650390625	-0.18733143615722656	0		4.6842314453125	-0.09044857788085937	0		5.59980224609375	0.20269052124023437	0		0.05134343719482422	6.0221650390625	0		
-0.002988313913345337	0.0029019410610198974	0		0.48832293701171875	-2.408635498046875	0		-0.9887042236328125	0.08121658325195312	0		-0.7956840209960937	-2.504812744140625	0		1.5397628173828124	-0.7788760375976562	0		3.176622314453125	-0.20916836547851564	0		4.67796337890625	-0.0970234375	0		5.5976728515625	0.20195245361328126	0		-0.09781466674804687	5.99169482421875	0		
-0.017004871368408205	9.408209919929504E-4	0		0.4571251220703125	-2.408324951171875	0		-1.0697205810546875	0.07959628295898437	0		-0.797895751953125	-2.50492529296875	0		1.534654296875	-0.7821466674804688	0		3.18475048828125	-0.20283360290527344	0		4.66701171875	-0.09547122955322265	0		5.58641259765625	0.18542330932617188	0		-0.09924586486816406	5.99151806640625	0		
-0.028660087585449218	0.009958344459533692	0		0.4800093078613281	-2.413002685546875	0		-0.9965712890625	0.07711426544189454	0		-0.804014892578125	-2.50894970703125	0		1.532760009765625	-0.7824507446289063	0		3.182906982421875	-0.20328202819824218	0		4.6710078125	-0.1051602020263672	0		5.589751953125	0.192669677734375	0		-0.13365420532226563	5.9859765625	0		
-0.01560307216644287	-0.0044731879234313964	0		0.4817366027832031	-2.434267822265625	0		-1.0691357421875	0.08337843322753906	0		-0.8418365478515625	-2.505360107421875	0		1.5310179443359375	-0.7827311401367187	0		3.186475341796875	-0.18979518127441405	0		4.6782822265625	-0.10786859130859375	0		5.58809033203125	0.19205459594726562	0		-0.08554537963867187	6.000908203125	0		
-0.01713532257080078	-0.004610671043395996	0		0.508013427734375	-2.43497265625	0		-0.995693603515625	0.08090390014648438	0		-0.8035484008789062	-2.505190673828125	0		1.5183902587890625	-0.7847786254882813	0		3.17362841796875	-0.20596687316894532	0		4.6709130859375	-0.09925342559814453	0		5.5907236328125	0.19941127014160157	0		0.030587844848632813	6.01056201171875	0		
-0.02611956024169922	0.016414346694946288	0		0.45200140380859377	-2.40609375	0		-1.072039306640625	0.0832718505859375	0		-0.8051064453125	-2.505259033203125	0		1.5709991455078125	-0.7830335693359375	0		3.197339599609375	-0.2007872314453125	0		4.6695224609375	-0.09970249938964844	0		5.594201171875	0.19080479431152345	0		0.02962209129333496	6.010435546875	0		
0.057217758178710935	-0.007308973789215088	0		0.5040223999023438	-2.438255126953125	0		-1.008275390625	0.08199030303955078	0		-0.8085294799804688	-2.50728125	0		1.5297662353515624	-0.7804810180664062	0		3.1651220703125	-0.19950694274902345	0		4.66828662109375	-0.1001036834716797	0		5.58813671875	0.19843983459472656	0		0.027785526275634766	6.011341796875	0		
-0.035547721862792966	0.00934204387664795	0		0.4463263854980469	-2.411298828125	0		-1.07840283203125	0.07926448059082031	0		-0.8138117065429687	-2.511259033203125	0		1.565552734375	-0.7863704223632813	0		3.19192333984375	-0.20631460571289062	0		4.667212890625	-0.10046085357666015	0		5.5918876953125	0.18793826293945312	0		-0.1384935760498047	5.984396484375	0		
0.055246700286865236	-0.007505323886871338	0		0.47486038208007814	-2.434981689453125	0		-1.0752252197265626	0.08314911651611329	0		-0.8487349243164063	-2.505660400390625	0		1.51054541015625	-0.7895037841796875	0		3.1838017578125	-0.21742599487304687	0		4.65015576171875	-0.10847283172607422	0		5.59099462890625	0.1875732421875	0		-0.13714096069335938	5.9822744140625	0		
-0.0153214111328125	0.0017483539581298827	0		0.4869414367675781	-2.439336181640625	0		-1.065976806640625	0.08191880798339844	0		-0.7976832885742188	-2.511705322265625	0		1.5358873291015624	-0.784154541015625	0		3.200572998046875	-0.19098060607910156	0		4.6655673828125	-0.10106841278076172	0		5.58546142578125	0.19733932495117187	0		-0.08927897644042969	5.99927099609375	0		
0.06107694625854492	-8.135240077972412E-4	0		0.47587869262695315	-2.4082314453125	0		-1.001553955078125	0.08062718963623047	0		-0.8102291259765625	-2.5055283203125	0		1.5263487548828125	-0.7811228637695312	0		3.163581298828125	-0.2124883270263672	0		4.660150390625	-0.09323302459716797	0		5.58490087890625	0.19704524230957032	0		0.026608400344848633	6.00995947265625	0		
-0.02833513069152832	-1.841209977865219E-4	0		0.44435882568359375	-2.409732177734375	0		-1.0060369262695312	0.07665489196777343	0		-0.814795654296875	-2.509506591796875	0		1.56281103515625	-0.786966064453125	0		3.18927587890625	-0.20717469787597656	0		4.66144873046875	-0.10850177764892578	0		5.5803447265625	0.18886083984375	0		0.02639333152770996	6.00987646484375	0		
0.053271987915039065	-0.007847983837127686	0		0.4429930419921875	-2.41180908203125	0		-1.0062967529296876	0.0765975341796875	0		-0.8171640014648438	-2.5115302734375	0		1.52257373046875	-0.7843223266601562	0		3.1628974609375	-0.21284359741210937	0		4.650205078125	-0.10750118255615235	0		5.580087890625	0.1886245574951172	0		-0.1061242904663086	5.98934033203125	0		
-0.03855135726928711	0.008835033416748047	0		0.47235861206054686	-2.435483154296875	0		-1.0064248657226562	0.07653153228759765	0		-0.8153128662109375	-2.5096396484375	0		1.5282896728515625	-0.7915604858398437	0		3.172301513671875	-0.18518359375	0		4.66418603515625	-0.1019675064086914	0		5.588921875	0.18623504638671876	0		-0.12403705596923828	5.9936005859375	0		
0.048223731994628906	-0.002938429117202759	0		0.47433477783203126	-2.4336259765625	0		-1.0773292236328125	0.08282679748535156	0		-0.8472351684570313	-2.50210205078125	0		1.5113587646484374	-0.7863570556640626	0		3.1668388671875	-0.2082382049560547	0		4.66416845703125	-0.10215149688720702	0		5.58410400390625	0.19612815856933594	0		-0.10601889801025391	5.98916064453125	0		
-0.023761260986328126	-0.005648808002471924	0		0.47282086181640626	-2.410701904296875	0		-1.0022822875976563	0.08029064178466797	0		-0.811260009765625	-2.50588720703125	0		1.565473388671875	-0.7845282592773437	0		3.20802294921875	-0.20318443298339844	0		4.66111083984375	-0.10926779174804688	0		5.58418603515625	0.19593817138671876	0		0.02657370376586914	6.00950244140625	0		
-0.0383347053527832	0.008526812553405762	0		0.47090591430664064	-2.412781005859375	0		-1.006205078125	0.07626876831054688	0		-0.8131761474609375	-2.507950439453125	0		1.56561669921875	-0.7846597900390625	0		3.16706494140625	-0.20854154968261718	0		4.6643974609375	-0.10249658966064454	0		5.58018701171875	0.18783631896972655	0		0.026800249099731447	6.00939013671875	0		
-0.023399627685546875	-0.0058840751647949215	0		0.46905386352539064	-2.41486962890625	0		-1.0059954833984375	0.07615470886230469	0		-0.7811322631835937	-2.5156845703125	0		1.522806884765625	-0.7849652099609375	0		3.1733095703125	-0.2068111572265625	0		4.67043017578125	-0.11177812957763672	0		5.5845517578125	0.19558175659179688	0		-0.10535527038574219	5.988826171875	0		
-0.023146696090698242	-0.006020061016082764	0		0.4827056884765625	-2.445274658203125	0		-1.0766318359375	0.08239999389648438	0		-0.839886474609375	-2.51467236328125	0		1.5261116943359374	-0.7821710205078125	0		3.182326904296875	-0.21914234924316406	0		4.65968408203125	-0.11173505401611328	0		5.58961181640625	0.18531021118164062	0		-0.13720787048339844	5.98131201171875	0		
0.010274211883544921	1.8953500688076018E-4	0		0.5130162353515625	-2.444009033203125	0		-0.9903947143554688	0.07859056854248046	0		-0.8094019775390625	-2.504400634765625	0		1.515362060546875	-0.7841162719726562	0		3.200136962890625	-0.19264501953125	0		4.66926416015625	-0.09708901214599609	0		5.59505810546875	0.19302969360351563	0		-0.08756169891357422	5.99721044921875	0		
